HIERARCHY
ROOT Hips
{
  OFFSET 3.13124 94.3669 -3.18751
  CHANNELS  6 Xposition Yposition Zposition Zrotation Xrotation Yrotation
  JOINT LeftUpLeg
  {
    OFFSET 8.64259 1.95398 -2.38835
    CHANNELS 3 Zrotation Xrotation Yrotation
    JOINT LeftLeg
    {
      OFFSET 43.7702 0 0
      CHANNELS 3 Zrotation Xrotation Yrotation
      JOINT LeftFoot
      {
        OFFSET 40.6238 0 0
        CHANNELS 3 Zrotation Xrotation Yrotation
        JOINT LeftToeBase
        {
          OFFSET 12.7242 0 0
          CHANNELS 3 Zrotation Xrotation Yrotation
          End Site
          {
            OFFSET 0 0 0
          }
        }
      }
    }
  }
  JOINT RightUpLeg
  {
    OFFSET -8.2249 1.95398 -2.59336
    CHANNELS 3 Zrotation Xrotation Yrotation
    JOINT RightLeg
    {
      OFFSET 43.5653 0 0
      CHANNELS 3 Zrotation Xrotation Yrotation
      JOINT RightFoot
      {
        OFFSET 40.6238 0 0
        CHANNELS 3 Zrotation Xrotation Yrotation
        JOINT RightToeBase
        {
          OFFSET 12.7242 0 0
          CHANNELS 3 Zrotation Xrotation Yrotation
          End Site
          {
            OFFSET 0 0 0
          }
        }
      }
    }
  }
  JOINT Spine
  {
    OFFSET 0.165834 0.87714 6.61349
    CHANNELS 3 Zrotation Xrotation Yrotation
    JOINT Spine1
    {
      OFFSET 7.38962 1.71661e-005 0
      CHANNELS 3 Zrotation Xrotation Yrotation
      JOINT Spine2
      {
        OFFSET 11.9445 1.14441e-005 0
        CHANNELS 3 Zrotation Xrotation Yrotation
        JOINT Spine3
        {
          OFFSET 14.7254 4.19617e-005 0
          CHANNELS 3 Zrotation Xrotation Yrotation
          JOINT Spine4
          {
            OFFSET 10.9679 0 0
            CHANNELS 3 Zrotation Xrotation Yrotation
            JOINT RightShoulder
            {
              OFFSET 2.46616 -1.6653 3.69651
              CHANNELS 3 Zrotation Xrotation Yrotation
              JOINT RightArm
              {
                OFFSET 13.0012 0 0
                CHANNELS 3 Zrotation Xrotation Yrotation
                JOINT RightForeArm
                {
                  OFFSET 28.7848 1.52588e-005 0
                  CHANNELS 3 Zrotation Xrotation Yrotation
                  JOINT RightHand
                  {
                    OFFSET 26.5688 1.52588e-005 0
                    CHANNELS 3 Zrotation Xrotation Yrotation
                    End Site
                    {
                      OFFSET 0 0 0
                    }
                  }
                }
              }
            }
            JOINT LeftShoulder
            {
              OFFSET 2.38034 -1.29275 -3.75231
              CHANNELS 3 Zrotation Xrotation Yrotation
              JOINT LeftArm
              {
                OFFSET 16.3182 6.10352e-005 0
                CHANNELS 3 Zrotation Xrotation Yrotation
                JOINT LeftForeArm
                {
                  OFFSET 27.0901 0 0
                  CHANNELS 3 Zrotation Xrotation Yrotation
                  JOINT LeftHand
                  {
                    OFFSET 24.5451 1.52588e-005 0
                    CHANNELS 3 Zrotation Xrotation Yrotation
                    End Site
                    {
                      OFFSET 0 0 0
                    }
                  }
                }
              }
            }
            JOINT Neck
            {
              OFFSET 5.0226 -0.0266342 0
              CHANNELS 3 Zrotation Xrotation Yrotation
              JOINT Head
              {
                OFFSET 6.69363 2.86102e-005 0
                CHANNELS 3 Zrotation Xrotation Yrotation
                End Site
                {
                  OFFSET 0 0 0
                }
              }
            }
          }
        }
      }
    }
  }
}
MOTION
Frames:	9
Frame Time:	0.0333333
6.17455 95.4678 -3.12426 -18.1071 -89.9977 -18.1051 -179.865 1.70711 90.1445 -7.21942 -0.0378795 0.0105161 62.5705 1.41043 0.714145 28.7808 6.44638e-006 9.86589e-006 179.17 1.74159 88.5104 -7.24325 -0.722762 -0.0373706 62.5585 -1.19725 -0.606095 28.7808 1.46404e-005 2.40402e-005 9.31743e-005 6.3489 -90.0015 14.1935 1.58347e-006 5.79581e-006 2.52251 6.64247e-006 -7.56079e-006 -20.0126 0.00503549 4.59389e-006 4.77083e-015 0.00503891 2.91188e-019 101.259 -17.9744 -84.4395 -8.73437 29.1972 -8.86525 -6.86129 -29.7759 -9.64843 1.76971 0.0977484 1.29088 -78.6367 -21.1432 95.0789 15.0318 -29.8547 -8.15436 5.46571 29.9414 -8.89015 -1.86892 -0.0654739 1.39261 1.75652 -0.00340709 -0.00481128 -7.40909 -5.89562e-005 0.0044045 
6.195 95.4863 -3.14443 -17.7018 -89.9626 -17.6747 -179.907 0.577141 90.1238 -4.80754 -0.192742 -0.0011947 61.7987 1.47956 0.746836 28.7808 6.44638e-006 9.86589e-006 179.157 0.819555 88.5594 -5.20459 -0.583116 -0.0373696 61.6623 -1.13565 -0.556336 28.7808 1.46404e-005 2.40402e-005 0.00153825 6.34887 -90.0193 14.1935 1.58347e-006 5.79581e-006 2.52251 6.64247e-006 -7.56079e-006 -20.0126 0.00503549 4.59389e-006 -3.4145e-023 0.00503891 3.88251e-019 101.264 -18.0054 -84.4918 -8.70739 29.1706 -8.82396 -6.85815 -29.7966 -9.63629 1.67016 0.0977472 1.3225 -78.6181 -21.1043 95.0638 15.0512 -29.57 -8.82573 4.56885 29.7041 -7.14036 -1.22968 -0.0406145 0.618942 1.79761 -0.00340708 -0.0786737 -7.37989 -0.000291115 0.0684458 
6.21614 95.4898 -3.16564 -9.62188 -89.9571 -9.59412 -179.909 0.656353 90.1185 -4.92836 -0.16857 0.000838526 61.7988 1.51158 0.764907 28.7808 6.44638e-006 9.86589e-006 179.154 0.868756 88.542 -5.26915 -0.576011 -0.0373695 61.6686 -1.14374 -0.561213 28.7808 1.46404e-005 2.40402e-005 0.00134234 6.34888 -90.0168 14.1935 1.58347e-006 5.79581e-006 2.52251 6.64247e-006 -7.56079e-006 -20.0126 0.00503549 4.59389e-006 3.18055e-015 0.00503891 -6.7944e-019 101.274 -18.0342 -84.4742 -8.64029 29.1306 -8.93059 -6.77302 -29.7095 -9.49327 1.61341 0.0984751 1.34933 -78.6146 -21.0726 95.0575 15.0503 -29.6282 -8.68491 4.74898 29.7416 -7.49595 -1.42997 -0.0491274 0.667748 1.78286 -0.00340708 -0.107912 -7.35365 0.0106577 0.0409839 
6.24161 95.4905 -3.18527 -29.4828 -89.9608 -29.4367 -179.928 0.560854 90.1039 -4.72556 -0.352302 0.000528226 61.7774 1.50964 0.766928 28.7808 6.44638e-006 9.86589e-006 179.143 0.919351 88.5391 -5.35877 -0.64681 -0.03737 61.6431 -1.18696 -0.585291 28.7808 1.46404e-005 2.40402e-005 0.00247169 6.34883 -90.0308 14.1935 1.58347e-006 5.5615e-005 2.52253 6.64247e-006 4.24003e-005 -20.0126 0.00503549 5.46081e-005 1.74289e-005 0.00503891 4.96131e-005 101.278 -18.1196 -84.473 -8.62461 29.1857 -8.85347 -6.92121 -29.7333 -9.77897 1.7597 0.108107 1.43423 -78.6164 -21.0416 95.044 15.06 -29.4549 -9.17113 4.1642 29.523 -6.34776 -1.0283 -0.0368331 0.198976 1.76916 -0.00340707 -0.161455 -7.39943 0.000641717 0.083645 
6.25723 95.4869 -3.20659 -79.9586 -89.9701 -79.9112 -179.926 0.553471 90.1026 -4.74119 -0.299905 -0.00100642 61.8121 1.57522 0.80598 28.7808 6.44638e-006 9.86589e-006 179.143 0.902197 88.5347 -5.34291 -0.598972 -0.0370525 61.6495 -1.14369 -0.559905 28.7808 1.46404e-005 2.40402e-005 0.00242071 6.34883 -90.0298 14.1931 -0.000200669 -0.000997599 2.52217 -0.000272262 -0.000997692 -20.013 0.00503549 -0.000975619 -0.000336872 0.00503891 -0.000985783 101.254 -18.1694 -84.4918 -8.62485 29.0633 -9.12204 -6.58964 -29.7799 -9.11129 1.55835 0.0886773 1.01971 -78.6355 -21.0446 95.0356 15.0834 -29.5444 -8.99204 4.40688 29.6501 -6.82212 -1.26485 -0.0460334 0.272857 1.71094 -0.0036235 -0.162892 -7.40671 0.0062916 0.0614951 
6.27915 95.484 -3.22016 -138.884 -89.9097 -138.847 -179.922 0.63867 90.0841 -5.05993 -0.267445 -0.00476511 61.8347 1.57711 0.802101 28.7808 6.44638e-006 9.86589e-006 179.145 0.763426 88.5108 -5.17655 -0.515952 -0.0319625 61.7057 -0.996611 -0.475644 28.7808 1.46404e-005 2.40402e-005 0.00217105 6.34887 -90.0202 14.1834 -0.00367136 -0.0282839 2.51245 -0.00490498 -0.0281003 -20.0227 0.00472095 -0.0280797 -0.0100602 0.00472448 -0.0280771 101.238 -18.1185 -84.4795 -8.59999 29.0584 -9.18896 -6.58221 -29.8625 -9.07413 1.62114 0.0886222 0.844327 -78.6746 -21.137 94.9983 15.0564 -29.9968 -7.71387 5.98667 30.2612 -9.85319 -2.32154 -0.0876148 1.62931 1.6964 -0.00489715 -0.0560992 -7.43382 0.000751207 0.0698104 
6.30578 95.4134 -3.24022 -154.085 -89.8572 -154.02 -179.934 0.470819 90.0861 -4.85513 -0.362454 -0.011524 62.3806 1.79387 0.944372 28.7808 6.44638e-006 9.86589e-006 179.154 0.560607 88.5098 -4.88053 -0.43318 -0.0261684 62.0419 -0.288361 -0.0673489 28.7808 1.46404e-005 2.40402e-005 0.000174401 6.34885 -90.0368 14.176 -0.0111134 -0.0331402 2.50505 -0.0125598 -0.032634 -20.0301 -0.000641045 -0.0349527 -0.0174538 -0.000636806 -0.0349497 101.227 -18.1666 -84.498 -8.59481 28.9587 -9.44526 -6.28169 -29.803 -8.49631 1.53639 0.077388 0.481682 -78.6468 -21.1976 95.0704 14.9978 -30.1996 -7.40119 6.60094 30.4772 -10.9995 -2.73826 -0.112169 2.42938 1.67757 0.0252067 -0.0402876 -7.47994 0.0261755 0.0856081 
6.35421 95.4365 -3.27247 -158.725 -89.893 -158.569 -179.851 3.82127 90.1645 -11.583 -0.124724 0.017145 63.8907 1.12463 0.581268 28.7808 6.44638e-006 9.86589e-006 179.153 1.83805 88.6006 -7.38954 -0.148744 -0.0137527 62.5313 -1.16188 -0.580405 28.7808 1.46404e-005 2.40402e-005 0.00190326 6.3493 -90.1342 14.1738 -0.0252915 -0.043671 2.5029 -0.0271932 -0.0425181 -20.0323 -0.0109915 -0.0492495 -0.019599 -0.0110037 -0.049258 101.242 -18.1188 -84.4687 -8.5016 28.8284 -9.72167 -6.00262 -29.8583 -7.92959 1.25751 0.0604951 0.281347 -78.6188 -21.3249 95.1325 14.9944 -30.2185 -7.49314 6.5911 30.5106 -10.9726 -2.76458 -0.114647 2.66976 1.75593 0.0338848 0.0931639 -7.61904 0.0180129 0.0305157 
6.42192 95.4636 -3.29307 -161.751 -89.8937 -161.576 -179.877 3.83224 90.1591 -11.5852 -0.0983264 0.0191412 63.814 1.0533 0.541569 28.7808 6.44638e-006 9.86589e-006 179.098 1.08594 88.5564 -5.80728 -0.151578 -0.0136165 61.7329 -1.02201 -0.482704 28.7808 1.46404e-005 2.40402e-005 -0.0013386 6.34995 -90.1731 14.1736 -0.039324 -0.0501325 2.50267 -0.0414863 -0.0483601 -20.0325 -0.0224373 -0.0596306 -0.0198321 -0.0224494 -0.0596482 101.25 -18.0967 -84.4482 -8.47611 28.7217 -9.97158 -5.7084 -29.7452 -7.35935 1.16832 0.0522362 0.0088338 -78.5878 -21.4916 95.2096 15.0611 -30.252 -7.50166 6.59951 30.536 -10.9829 -2.87095 -0.121257 2.68434 1.80654 0.0496454 0.241916 -7.70976 0.0134172 -0.0165055 
